<svg width="48" height="48" viewBox="0 0 48 48" fill="none" xmlns="http://www.w3.org/2000/svg">
<path fill-rule="evenodd" clip-rule="evenodd" d="M23.9999 0C37.2547 0 47.9999 10.7425 47.9999 24.0033C47.9999 37.2574 37.2547 47.9999 23.9999 47.9999C10.7451 47.9999 0 37.2578 0 24.0033C0 10.7425 10.7452 0 23.9999 0ZM38.8803 14.8638L25.7629 25.7631C25.2695 26.1789 24.645 26.407 23.9998 26.407C23.3545 26.407 22.73 26.1789 22.2367 25.7631L9.11934 14.8638C9.04007 15.0666 8.99955 15.2826 8.99991 15.5003V32.4993C9.00097 32.9658 9.18673 33.4129 9.51655 33.7429C9.84638 34.0728 10.2934 34.2588 10.76 34.26H37.2396C37.7061 34.2588 38.1533 34.0729 38.4832 33.743C38.813 33.413 38.9988 32.9659 38.9999 32.4993V15.5003C39.0002 15.2825 38.9596 15.0666 38.8803 14.8638ZM9.72881 14.0755L22.8738 24.9974C23.1894 25.262 23.5881 25.407 24 25.407C24.4118 25.407 24.8105 25.262 25.1261 24.9974L38.2711 14.0755C37.9715 13.8574 37.6104 13.7399 37.2398 13.74H10.76C10.3894 13.7398 10.0283 13.8573 9.72881 14.0755Z" fill="#95BF47"/>
</svg>
