<svg width="43" height="48" viewBox="0 0 43 48" fill="none" xmlns="http://www.w3.org/2000/svg">
<path d="M37.1029 9.24277C37.0697 9.00042 36.8574 8.86636 36.6824 8.85174C36.5074 8.83711 33.0906 8.78517 33.0906 8.78517C33.0906 8.78517 30.233 6.00989 29.9507 5.72742C29.6684 5.44495 29.117 5.53064 28.9029 5.59364L27.467 6.0382C27.3169 5.55052 27.0954 4.95155 26.7799 4.34967C25.7623 2.40867 24.2727 1.38127 22.4722 1.37864H22.4662C22.3414 1.37864 22.217 1.39036 22.0925 1.4017C22.0401 1.33771 21.9858 1.27527 21.9297 1.21449C21.1459 0.375517 20.1393 -0.0332332 18.9345 0.00211053C16.6087 0.0687668 14.2938 1.74811 12.4161 4.73049C11.0943 6.82955 10.0901 9.46645 9.80456 11.5073C7.13475 12.3341 5.26678 12.9126 5.22638 12.9253C3.87872 13.3482 3.83634 13.3905 3.65963 14.6602C3.52584 15.6214 0 42.8894 0 42.8894L29.5532 47.9999L42.3617 44.8162C42.3617 44.8162 37.136 9.48511 37.1029 9.24277ZM11.4602 10.9945C12.2593 7.25799 15.3902 1.65239 18.9792 1.54917C19.5252 1.53774 19.9851 1.65755 20.3778 1.91602C19.7497 2.24217 19.1421 2.71092 18.5722 3.32217C17.095 4.90674 15.9636 7.36711 15.5123 9.73964L11.4602 10.9945ZM22.1471 7.6853L17.2132 9.21305C17.6905 7.38699 18.5941 5.56889 19.7045 4.3778C20.1175 3.93474 20.6954 3.4403 21.3796 3.15802C22.0233 4.4993 22.1627 6.40074 22.1471 7.6853ZM23.6931 7.20661C23.6759 6.02902 23.5353 4.39111 22.9867 2.9752C24.7512 3.30952 25.62 5.30602 25.9867 6.49645L23.6931 7.20661Z" fill="#95BF47"/>
<path d="M36.6822 8.85177C36.5071 8.83714 33.0903 8.7852 33.0903 8.7852C33.0903 8.7852 30.2327 6.00992 29.9505 5.72745C29.8452 5.62208 29.7024 5.56817 29.5537 5.54492L29.5545 47.9996L42.3615 44.8162C42.3615 44.8162 37.1358 9.48514 37.1026 9.2428C37.0695 9.00045 36.8572 8.86639 36.6822 8.85177Z" fill="#5E8E3E"/>
<path d="M22.4554 15.4375L20.9677 21.0026C20.9677 21.0026 19.3083 20.2469 17.341 20.3711C14.4564 20.5533 14.4257 22.3729 14.4545 22.8289C14.6116 25.3179 21.1593 25.8617 21.5274 31.6913C21.817 36.2777 19.0946 39.415 15.172 39.6626C10.465 39.9598 7.87305 37.1823 7.87305 37.1823L8.87045 32.9387C8.87045 32.9387 11.4789 34.9067 13.5669 34.7749C14.9307 34.6887 15.418 33.5795 15.3685 32.795C15.1635 29.5482 9.83177 29.7395 9.49492 24.4048C9.21142 19.915 12.1597 15.3665 18.6652 14.9557C21.1718 14.7975 22.4554 15.4375 22.4554 15.4375Z" fill="white"/>
</svg>
